<svg width="137" height="116" viewBox="0 0 137 116" fill="#404040" xmlns="http://www.w3.org/2000/svg">
<path fill-rule="evenodd" clip-rule="evenodd" d="M0.60083 97.8679C21.0304 87.8043 31.245 75.9797 31.245 62.3938C22.5373 61.3874 15.3368 57.8232 9.64336 51.7012C3.94989 45.5791 1.1032 38.4928 1.1032 30.4418C1.1032 21.8877 3.86617 14.6756 9.39218 8.80511C14.9182 2.93465 21.8675 -0.000534058 30.2402 -0.000534058C39.6177 -0.000534058 47.7392 3.81521 54.6049 11.4468C61.4705 19.0784 64.9033 28.3452 64.9033 39.2475C64.9033 71.9543 46.651 97.5324 10.1457 115.982L0.60083 97.8679ZM72.6975 97.8679C93.2945 87.8043 103.593 75.9797 103.593 62.3938C94.7177 61.3874 87.4335 57.8232 81.7401 51.7012C76.0466 45.5791 73.1999 38.4928 73.1999 30.4418C73.1999 21.8877 76.0047 14.6756 81.6145 8.80511C87.2242 2.93465 94.2154 -0.000534058 102.588 -0.000534058C111.966 -0.000534058 120.045 3.81521 126.827 11.4468C133.609 19.0784 137 28.3452 137 39.2475C137 71.9543 118.831 97.5324 82.4936 115.982L72.6975 97.8679Z"/>
</svg>
