<svg width="34" height="32" viewBox="0 0 34 32" fill="none" xmlns="http://www.w3.org/2000/svg">
<path d="M26.5791 19.8155C26.1514 20.23 25.9549 20.8294 26.0523 21.4173L27.5203 29.5419C27.6442 30.2305 27.3536 30.9274 26.7772 31.3253C26.2125 31.7382 25.4611 31.7877 24.8452 31.4574L17.5314 27.6429C17.2771 27.5074 16.9947 27.4348 16.7058 27.4265H16.2582C16.103 27.4496 15.9511 27.4992 15.8124 27.5751L8.49698 31.4079C8.13534 31.5895 7.72581 31.6539 7.32454 31.5895C6.34695 31.4046 5.69467 30.4732 5.85485 29.4907L7.32454 21.3661C7.42196 20.7733 7.22546 20.1706 6.79776 19.7495L0.834797 13.9698C0.336095 13.486 0.162705 12.7594 0.390589 12.1038C0.611867 11.4499 1.17662 10.9726 1.85862 10.8653L10.0657 9.67468C10.69 9.61028 11.2382 9.23047 11.5189 8.66902L15.1353 1.25453C15.2212 1.08939 15.3318 0.937471 15.4656 0.808667L15.6142 0.693073C15.6918 0.607204 15.781 0.536196 15.8801 0.4784L16.0601 0.412346L16.3408 0.296753H17.036C17.6569 0.361155 18.2035 0.732705 18.4892 1.28755L22.1535 8.66902C22.4177 9.20901 22.9313 9.58386 23.5241 9.67468L31.7312 10.8653C32.4248 10.9644 33.0044 11.4433 33.2339 12.1038C33.4503 12.766 33.2637 13.4926 32.7551 13.9698L26.5791 19.8155Z" fill="#FFC908"/>
</svg>
