<svg width="33" height="33" viewBox="0 0 33 33" fill="none" xmlns="http://www.w3.org/2000/svg">
<path d="M27.875 32.75H5.125C3.83207 32.75 2.59209 32.2364 1.67785 31.3221C0.763615 30.4079 0.25 29.1679 0.25 27.875V1.875C0.25 1.44402 0.421205 1.0307 0.725951 0.725951C1.0307 0.421205 1.44402 0.25 1.875 0.25H24.625C25.056 0.25 25.4693 0.421205 25.774 0.725951C26.0788 1.0307 26.25 1.44402 26.25 1.875V21.375H32.75V27.875C32.75 29.1679 32.2364 30.4079 31.3221 31.3221C30.4079 32.2364 29.1679 32.75 27.875 32.75ZM26.25 24.625V27.875C26.25 28.306 26.4212 28.7193 26.726 29.024C27.0307 29.3288 27.444 29.5 27.875 29.5C28.306 29.5 28.7193 29.3288 29.024 29.024C29.3288 28.7193 29.5 28.306 29.5 27.875V24.625H26.25ZM23 29.5V3.5H3.5V27.875C3.5 28.306 3.67121 28.7193 3.97595 29.024C4.2807 29.3288 4.69402 29.5 5.125 29.5H23ZM6.75 8.375H19.75V11.625H6.75V8.375ZM6.75 14.875H19.75V18.125H6.75V14.875ZM6.75 21.375H14.875V24.625H6.75V21.375Z" fill="white"/>
</svg>
