<svg width="40" height="47" viewBox="0 0 40 47" fill="none" xmlns="http://www.w3.org/2000/svg">
<path d="M21.2235 0.609958L36.6021 5.76971C38.3235 6.34453 39.4875 7.92586 39.4968 9.69803L39.5948 25.0841C39.6251 29.7486 37.9246 34.2722 34.8107 37.8165C33.3785 39.4433 31.5427 40.8406 29.1985 42.0902L20.9319 46.5093C20.673 46.6456 20.3884 46.716 20.1015 46.7183C19.8146 46.7206 19.5277 46.6524 19.2711 46.5184L10.9275 42.2015C8.55762 40.9724 6.70556 39.5955 5.25936 37.9915C2.09407 34.4835 0.335313 29.9803 0.30499 25.3091L0.206965 9.93432C0.197692 8.15987 1.34065 6.56719 3.05275 5.96965L18.3731 0.625862C19.2828 0.303236 20.2974 0.29642 21.2235 0.609958ZM28.5776 17.1046C27.8895 16.4434 26.7815 16.448 26.1027 17.1182L18.298 24.8113L15.1023 21.7395C14.4142 21.0783 13.3086 21.0852 12.6275 21.7554C11.9487 22.4256 11.9557 23.5026 12.6438 24.1637L17.0827 28.4351C17.4279 28.7668 17.8758 28.9304 18.3236 28.926C18.7715 28.9236 19.217 28.7555 19.5575 28.4192L28.5916 19.5129C29.2704 18.8427 29.2634 17.7657 28.5776 17.1046Z" fill="white"/>
</svg>
